<svg version="1.1" id="HORIZ_LOGO_LOCKUP" xmlns="http://www.w3.org/2000/svg" xmlns:xlink="http://www.w3.org/1999/xlink" x="0px" y="0px" viewBox="0 0 866.5 154.5" enable-background="new 0 0 866.5 154.5" xml:space="preserve">
          <g id="_03_STORE">
            <path fill="#3C4043" d="M865.7,108c-2.4,4.3-5.8,8-9.9,10.7c-4.3,2.9-9.5,4.3-15.8,4.3c-3.9,0-7.8-0.7-11.4-2.2               c-3.4-1.4-6.5-3.5-9.1-6.1c-2.6-2.7-4.6-5.8-6-9.3c-2.8-7.4-2.9-15.6-0.1-23.1c1.3-3.4,3.2-6.6,5.7-9.3c2.5-2.7,5.5-4.9,8.8-6.4               c3.6-1.6,7.5-2.4,11.5-2.4c3.9-0.1,7.8,0.7,11.4,2.1c3.2,1.4,6.1,3.4,8.5,6c2.4,2.7,4.2,5.8,5.3,9.2c1.3,3.8,1.9,7.8,1.7,11.8               c0,1-0.1,2-0.2,2.9h-42.3c0.2,2.4,0.8,4.7,1.9,6.9c1,1.8,2.3,3.5,3.9,4.8c1.5,1.3,3.3,2.2,5.1,2.8c1.8,0.6,3.6,0.9,5.5,0.9               c3.2,0.1,6.3-0.8,8.9-2.6c2.3-1.7,4.3-3.9,5.7-6.4L865.7,108z M854.1,86.7c-0.2-1.3-0.6-2.6-1.1-3.8c-0.6-1.4-1.5-2.7-2.6-3.8               c-1.3-1.3-2.8-2.3-4.5-3c-2.1-0.9-4.4-1.3-6.7-1.2c-3.4-0.1-6.7,1.1-9.3,3.2c-2.6,2.2-4.5,5.2-5.2,8.6H854.1z"/>
            <path fill="#3C4043" d="M670.7,76.9h-9.6V66h9.6V49.3h12.3V66h13.4v10.9h-13.4v24.9c0,1.3,0.1,2.5,0.4,3.8c0.2,1,0.7,2,1.3,2.9               c1.2,1.4,2.9,2.2,4.8,2.2c0.9,0,1.9-0.1,2.8-0.3c0.7-0.2,1.4-0.5,2.1-0.8l3.8,10.9c-1.6,0.6-3.2,1.1-4.9,1.4               c-1.9,0.4-3.8,0.5-5.8,0.5c-2.4,0-4.7-0.4-6.9-1.2c-1.9-0.8-3.7-1.9-5.2-3.4c-3.2-3.2-4.8-7.7-4.8-13.3V76.9z"/>
            <path fill="#3C4043" d="M732.1,64.2c3.9,0,7.8,0.7,11.4,2.2c3.4,1.4,6.4,3.4,9,6.1c2.6,2.7,4.6,5.8,5.9,9.2               c2.8,7.4,2.8,15.7,0,23.1c-1.3,3.4-3.3,6.6-5.9,9.2c-2.6,2.6-5.6,4.7-9,6.1c-7.4,2.9-15.5,2.9-22.9,0c-3.4-1.4-6.4-3.4-9-6.1               c-2.6-2.7-4.6-5.8-5.9-9.2c-2.8-7.4-2.8-15.7,0-23.1c1.3-3.4,3.3-6.6,5.9-9.2c2.6-2.6,5.6-4.7,9-6.1               C724.3,64.9,728.2,64.2,732.1,64.2z M732.1,110.8c2.1,0,4.1-0.4,6-1.2c1.9-0.8,3.7-2,5.2-3.4c1.6-1.6,2.8-3.4,3.6-5.5               c1.8-4.8,1.8-10,0-14.8c-0.8-2.1-2-3.9-3.6-5.5c-1.5-1.5-3.2-2.6-5.2-3.4c-3.8-1.6-8.2-1.6-12,0c-1.9,0.8-3.7,2-5.2,3.4               c-1.6,1.6-2.8,3.4-3.6,5.5c-1.8,4.8-1.8,10,0,14.8c0.8,2.1,2,3.9,3.6,5.5c1.5,1.5,3.2,2.6,5.2,3.4C728,110.3,730,110.8,732.1,110.8               z"/>
            <path fill="#3C4043" d="M771.7,66h11.8v8.3h0.7c0.7-1.5,1.6-2.8,2.8-4c1.2-1.2,2.5-2.3,3.9-3.2c1.5-0.9,3-1.6,4.6-2.1               c1.5-0.5,3.1-0.8,4.7-0.8c1.6,0,3.1,0.1,4.6,0.5c1.3,0.4,2.5,0.9,3.7,1.5l-4.1,11.1c-0.8-0.3-1.6-0.5-2.4-0.7               c-1.2-0.2-2.4-0.3-3.7-0.3c-1.9,0-3.8,0.4-5.6,1.2c-1.7,0.8-3.2,2-4.4,3.4c-1.3,1.5-2.3,3.2-3,5.1c-0.7,2-1.1,4.1-1.1,6.2v28.2               h-12.5V66z"/>
            <path fill="#3C4043" d="M609.5,116.2c2.7,2,5.8,3.5,9,4.5c6.5,2,13.5,2,20.1,0.1c3.4-0.9,6.5-2.5,9.3-4.5c2.8-2.1,5.1-4.8,6.8-7.8               c1.9-3.5,2.8-7.4,2.7-11.4c0.1-3.3-0.5-6.6-1.7-9.7c-1.1-2.7-2.8-5.2-4.8-7.3c-2.1-2.2-4.6-4-7.3-5.4c-3-1.6-6.1-2.9-9.3-4l-5.5-2               c-4.1-1.3-7.9-3.1-11.4-5.5c-2.6-1.8-4.1-4.8-4.1-8c0-1.6,0.4-3.2,1.2-4.5c0.8-1.4,1.9-2.6,3.1-3.6c1.4-1.1,3-1.9,4.6-2.3               c1.8-0.6,3.7-0.8,5.7-0.8c2,0,4.1,0.3,6,1c1.6,0.6,3.1,1.5,4.5,2.5c1.2,1,2.3,2.2,3.1,3.5c0.6,1,1.2,2.1,1.6,3.2l11.4-4.8               c-0.7-1.9-1.7-3.7-2.7-5.4c-1.4-2.2-3.1-4.1-5.2-5.8c-2.4-1.9-5.1-3.4-7.9-4.4c-3.5-1.2-7.2-1.8-11-1.7c-3.7,0-7.4,0.6-11,1.9               c-3.1,1.1-6,2.9-8.5,5.1c-2.3,2.1-4.2,4.6-5.5,7.4c-1.3,2.8-2,5.9-2,9c-0.1,3.1,0.6,6.1,1.8,8.9c1.2,2.5,2.8,4.7,4.8,6.6               c2,1.9,4.2,3.5,6.6,4.8c2.3,1.3,4.7,2.3,7.2,3.2l5.5,2c2.8,1,5.5,2.1,8.2,3.4c2,0.9,3.9,2.1,5.6,3.6c1.4,1.2,2.4,2.6,3.2,4.2               c0.7,1.6,1,3.4,1,5.1c0,2-0.4,3.9-1.4,5.6c-0.9,1.6-2.1,3-3.5,4.1c-1.5,1.1-3.2,2-5.1,2.5c-2,0.5-4,0.8-6,0.8               c-2.4,0-4.7-0.4-6.9-1.3c-2-0.9-3.9-2.1-5.5-3.6c-1.7-1.5-3.1-3.3-4.1-5.3c-1-1.9-1.8-3.8-2.4-5.9L597.6,99c1,3.5,2.6,6.8,4.6,9.8               C604.2,111.7,606.7,114.2,609.5,116.2z"/>
          </g>
          <g id="_02_GOOGLE_LOGO">
            <g id="_29x9pt">
              <path fill="#3C4043" d="M242.7,122.2c-24.8,0-45.7-20.2-45.7-45c0-24.8,20.9-45,45.7-45c11.5-0.2,22.6,4.3,30.8,12.4l-8.7,8.7                 c-5.9-5.7-13.9-8.9-22.2-8.8c-18.1,0-32.3,14.6-32.3,32.7c0,18.1,14.2,32.7,32.3,32.7c11.7,0,18.4-4.7,22.7-9                 c3.5-3.5,5.8-8.6,6.7-15.5h-29.4V73.2h41.4c0.5,2.5,0.7,5.1,0.7,7.7c0,9.2-2.5,20.6-10.6,28.8                 C266.2,117.8,256.1,122.2,242.7,122.2z"/>
              <path fill="#3C4043" d="M350.2,93.2c0.1,15.9-12.8,28.9-28.7,29s-28.9-12.8-29-28.7c0-0.1,0-0.2,0-0.3                 c-0.1-15.9,12.8-28.9,28.7-29c15.9-0.1,28.9,12.8,29,28.7C350.2,93,350.2,93.1,350.2,93.2z M337.6,93.2c0-10.4-7.5-17.6-16.2-17.6                 c-8.7,0-16.2,7.1-16.2,17.6c0,10.3,7.5,17.6,16.2,17.6C330.1,110.8,337.6,103.6,337.6,93.2z"/>
              <path fill="#3C4043" d="M414.2,93.2c0.1,15.9-12.8,28.9-28.7,29s-28.9-12.8-29-28.7c0-0.1,0-0.2,0-0.3                 c-0.1-15.9,12.8-28.9,28.7-29c15.9-0.1,28.9,12.8,29,28.7C414.2,93,414.2,93.1,414.2,93.2z M401.6,93.2c0-10.4-7.5-17.6-16.2-17.6                 c-8.7,0-16.2,7.1-16.2,17.6c0,10.3,7.5,17.6,16.2,17.6C394.1,110.8,401.6,103.6,401.6,93.2z"/>
              <path fill="#3C4043" d="M476.9,66v52c0,21.4-12.6,30.2-27.6,30.2c-11.2,0.1-21.4-6.7-25.7-17.1l11.1-4.6c2,4.7,6.8,10.3,14.6,10.3                 c9.6,0,15.5-5.9,15.5-17v-4.2h-0.4c-2.9,3.5-8.3,6.6-15.3,6.6c-14.5,0-27.8-12.6-27.8-28.9c0-16.4,13.3-29.1,27.8-29.1                 c6.9,0,12.4,3.1,15.3,6.5h0.4V66H476.9z M465.7,93.3c0-10.2-6.8-17.7-15.5-17.7c-8.8,0-16.1,7.5-16.1,17.7                 c0,10.1,7.4,17.4,16.1,17.4C458.9,110.8,465.7,103.4,465.7,93.3z"/>
              <path fill="#3C4043" d="M502.5,35.3v85.2h-12.7V35.3H502.5z"/>
              <path fill="#3C4043" d="M556.7,102.8l9.9,6.6c-5.4,8.1-14.5,12.9-24.1,12.8c-16.5,0-28.8-12.7-28.8-29c0-17.2,12.4-29,27.3-29                 c15,0,22.4,12,24.8,18.4l1.3,3.3l-38.7,16c3,5.8,7.6,8.8,14,8.8S553.4,107.6,556.7,102.8z M526.3,92.4l25.9-10.8                 c-1.4-3.6-5.7-6.1-10.8-6.1C534.9,75.5,525.9,81.2,526.3,92.4L526.3,92.4z"/>
            </g>
          </g>
          <g id="_01_SUPER_G">
            <path fill="#4285F4" d="M154.5,79c0.1-5.3-0.5-10.6-1.7-15.8h-74v28.6h43.4c-0.9,7.2-5.6,17.8-16.1,25v18.9H131               C145.8,122.3,154.5,102.5,154.5,79z"/>
            <path fill="#34A853" d="M78.8,154.5c21.3,0,39.1-6.9,52.2-18.7l-24.9-18.9c-6.6,4.6-15.6,7.8-27.3,7.8c-20.3,0-38.3-12.9-44.9-32.1               H8.4v19.4C22.1,138.1,49.2,154.6,78.8,154.5z"/>
            <path fill="#FBBC04" d="M33.9,92.5c-3.4-9.9-3.4-20.6,0-30.5V42.6H8.4c-11.3,21.7-11.3,47.6,0,69.3L33.9,92.5z"/>
            <path fill="#EA4335" d="M78.8,29.9c14.8,0,24.7,6.3,30.4,11.5l22.3-21.2C117.9,7.7,100.1,0,78.8,0C49.2-0.1,22.1,16.3,8.4,42.6               L33.9,62C40.5,42.8,58.5,29.9,78.8,29.9z"/>
          </g>
        </svg>